<?xml version="1.0" standalone="no"?>
<!DOCTYPE svg PUBLIC "-//W3C//DTD SVG 20010904//EN"
 "http://www.w3.org/TR/2001/REC-SVG-20010904/DTD/svg10.dtd">
<svg version="1.0" xmlns="http://www.w3.org/2000/svg"
 width="460.000000pt" height="460.000000pt" viewBox="0 0 460.000000 460.000000"
 preserveAspectRatio="xMidYMid meet">
<metadata>
Created by potrace 1.14, written by Peter Selinger 2001-2017
</metadata>
<g transform="translate(0.000000,460.000000) scale(0.100000,-0.100000)"
fill="#000000" stroke="none">
<path d="M810 4581 c-255 -55 -425 -158 -600 -366 -42 -51 -117 -183 -144
-253 -66 -175 -60 -40 -63 -1622 -2 -1515 -3 -1490 42 -1640 45 -149 165 -335
287 -445 116 -104 255 -179 415 -223 l98 -27 1425 -2 c1435 -1 1432 -1 1585
31 50 11 147 48 205 80 261 141 433 359 513 651 l21 80 3 1420 c2 1530 4 1482
-49 1645 -47 145 -135 287 -250 401 -126 126 -265 206 -445 256 l-98 28 -1430
2 c-1344 2 -1435 1 -1515 -16z"/>
</g>
</svg>
